<svg width="183" height="37" viewBox="0 0 183 37" fill="none" xmlns="http://www.w3.org/2000/svg">
<path d="M53.7701 24L48.2741 7.2H52.3061L57.0821 22.08H55.0661L60.0581 7.2H63.6581L68.4581 22.08H66.5141L71.4101 7.2H75.1301L69.6341 24H65.4581L61.2101 10.944H62.3141L57.9461 24H53.7701ZM83.9957 24V21.48L83.7557 20.928V16.416C83.7557 15.616 83.5077 14.992 83.0117 14.544C82.5317 14.096 81.7877 13.872 80.7797 13.872C80.0917 13.872 79.4117 13.984 78.7397 14.208C78.0837 14.416 77.5237 14.704 77.0597 15.072L75.7157 12.456C76.4197 11.96 77.2677 11.576 78.2597 11.304C79.2517 11.032 80.2597 10.896 81.2837 10.896C83.2517 10.896 84.7797 11.36 85.8677 12.288C86.9557 13.216 87.4997 14.664 87.4997 16.632V24H83.9957ZM80.0597 24.192C79.0517 24.192 78.1877 24.024 77.4677 23.688C76.7477 23.336 76.1957 22.864 75.8117 22.272C75.4277 21.68 75.2357 21.016 75.2357 20.28C75.2357 19.512 75.4197 18.84 75.7877 18.264C76.1717 17.688 76.7717 17.24 77.5877 16.92C78.4037 16.584 79.4677 16.416 80.7797 16.416H84.2117V18.6H81.1877C80.3077 18.6 79.6997 18.744 79.3637 19.032C79.0437 19.32 78.8837 19.68 78.8837 20.112C78.8837 20.592 79.0677 20.976 79.4357 21.264C79.8197 21.536 80.3397 21.672 80.9957 21.672C81.6197 21.672 82.1797 21.528 82.6757 21.24C83.1717 20.936 83.5317 20.496 83.7557 19.92L84.3317 21.648C84.0597 22.48 83.5637 23.112 82.8437 23.544C82.1237 23.976 81.1957 24.192 80.0597 24.192ZM96.1682 24.192C94.6482 24.192 93.4642 23.808 92.6162 23.04C91.7682 22.256 91.3442 21.096 91.3442 19.56V8.232H95.0882V19.512C95.0882 20.056 95.2322 20.48 95.5202 20.784C95.8082 21.072 96.2002 21.216 96.6962 21.216C97.2882 21.216 97.7922 21.056 98.2082 20.736L99.2162 23.376C98.8322 23.648 98.3682 23.856 97.8242 24C97.2962 24.128 96.7442 24.192 96.1682 24.192ZM89.3522 14.256V11.376H98.3042V14.256H89.3522ZM107.159 24.192C105.767 24.192 104.527 23.912 103.439 23.352C102.351 22.776 101.495 21.984 100.871 20.976C100.263 19.968 99.9594 18.824 99.9594 17.544C99.9594 16.248 100.263 15.104 100.871 14.112C101.495 13.104 102.351 12.32 103.439 11.76C104.527 11.184 105.767 10.896 107.159 10.896C108.519 10.896 109.703 11.184 110.711 11.76C111.719 12.32 112.463 13.128 112.943 14.184L110.039 15.744C109.703 15.136 109.279 14.688 108.767 14.4C108.271 14.112 107.727 13.968 107.135 13.968C106.495 13.968 105.919 14.112 105.407 14.4C104.895 14.688 104.487 15.096 104.183 15.624C103.895 16.152 103.751 16.792 103.751 17.544C103.751 18.296 103.895 18.936 104.183 19.464C104.487 19.992 104.895 20.4 105.407 20.688C105.919 20.976 106.495 21.12 107.135 21.12C107.727 21.12 108.271 20.984 108.767 20.712C109.279 20.424 109.703 19.968 110.039 19.344L112.943 20.928C112.463 21.968 111.719 22.776 110.711 23.352C109.703 23.912 108.519 24.192 107.159 24.192ZM122.877 10.896C123.901 10.896 124.813 11.104 125.613 11.52C126.429 11.92 127.069 12.544 127.533 13.392C127.997 14.224 128.229 15.296 128.229 16.608V24H124.485V17.184C124.485 16.144 124.253 15.376 123.789 14.88C123.341 14.384 122.701 14.136 121.869 14.136C121.277 14.136 120.741 14.264 120.261 14.52C119.797 14.76 119.429 15.136 119.157 15.648C118.901 16.16 118.773 16.816 118.773 17.616V24H115.029V6.192H118.773V14.664L117.933 13.584C118.397 12.72 119.061 12.056 119.925 11.592C120.789 11.128 121.773 10.896 122.877 10.896ZM131.887 24V7.2H139.519C141.343 7.2 142.951 7.552 144.343 8.256C145.735 8.944 146.823 9.912 147.607 11.16C148.391 12.408 148.783 13.888 148.783 15.6C148.783 17.296 148.391 18.776 147.607 20.04C146.823 21.288 145.735 22.264 144.343 22.968C142.951 23.656 141.343 24 139.519 24H131.887ZM135.775 20.808H139.327C140.447 20.808 141.415 20.6 142.231 20.184C143.063 19.752 143.703 19.144 144.151 18.36C144.615 17.576 144.847 16.656 144.847 15.6C144.847 14.528 144.615 13.608 144.151 12.84C143.703 12.056 143.063 11.456 142.231 11.04C141.415 10.608 140.447 10.392 139.327 10.392H135.775V20.808ZM157.595 24.192C156.219 24.192 154.995 23.904 153.923 23.328C152.867 22.752 152.027 21.968 151.403 20.976C150.795 19.968 150.491 18.824 150.491 17.544C150.491 16.248 150.795 15.104 151.403 14.112C152.027 13.104 152.867 12.32 153.923 11.76C154.995 11.184 156.219 10.896 157.595 10.896C158.955 10.896 160.171 11.184 161.243 11.76C162.315 12.32 163.155 13.096 163.763 14.088C164.371 15.08 164.675 16.232 164.675 17.544C164.675 18.824 164.371 19.968 163.763 20.976C163.155 21.968 162.315 22.752 161.243 23.328C160.171 23.904 158.955 24.192 157.595 24.192ZM157.595 21.12C158.219 21.12 158.779 20.976 159.275 20.688C159.771 20.4 160.163 19.992 160.451 19.464C160.739 18.92 160.883 18.28 160.883 17.544C160.883 16.792 160.739 16.152 160.451 15.624C160.163 15.096 159.771 14.688 159.275 14.4C158.779 14.112 158.219 13.968 157.595 13.968C156.971 13.968 156.411 14.112 155.915 14.4C155.419 14.688 155.019 15.096 154.715 15.624C154.427 16.152 154.283 16.792 154.283 17.544C154.283 18.28 154.427 18.92 154.715 19.464C155.019 19.992 155.419 20.4 155.915 20.688C156.411 20.976 156.971 21.12 157.595 21.12ZM173.249 28.848C172.033 28.848 170.857 28.696 169.721 28.392C168.601 28.104 167.665 27.664 166.913 27.072L168.401 24.384C168.945 24.832 169.633 25.184 170.465 25.44C171.313 25.712 172.145 25.848 172.961 25.848C174.289 25.848 175.249 25.552 175.841 24.96C176.449 24.368 176.753 23.488 176.753 22.32V20.376L176.993 17.136L176.945 13.872V11.088H180.497V21.84C180.497 24.24 179.873 26.008 178.625 27.144C177.377 28.28 175.585 28.848 173.249 28.848ZM172.673 23.376C171.473 23.376 170.385 23.12 169.409 22.608C168.449 22.08 167.673 21.352 167.081 20.424C166.505 19.48 166.217 18.384 166.217 17.136C166.217 15.872 166.505 14.776 167.081 13.848C167.673 12.904 168.449 12.176 169.409 11.664C170.385 11.152 171.473 10.896 172.673 10.896C173.761 10.896 174.721 11.12 175.553 11.568C176.385 12 177.033 12.68 177.497 13.608C177.961 14.52 178.193 15.696 178.193 17.136C178.193 18.56 177.961 19.736 177.497 20.664C177.033 21.576 176.385 22.256 175.553 22.704C174.721 23.152 173.761 23.376 172.673 23.376ZM173.417 20.304C174.073 20.304 174.657 20.176 175.169 19.92C175.681 19.648 176.081 19.272 176.369 18.792C176.657 18.312 176.801 17.76 176.801 17.136C176.801 16.496 176.657 15.944 176.369 15.48C176.081 15 175.681 14.632 175.169 14.376C174.657 14.104 174.073 13.968 173.417 13.968C172.761 13.968 172.177 14.104 171.665 14.376C171.153 14.632 170.745 15 170.441 15.48C170.153 15.944 170.009 16.496 170.009 17.136C170.009 17.76 170.153 18.312 170.441 18.792C170.745 19.272 171.153 19.648 171.665 19.92C172.177 20.176 172.761 20.304 173.417 20.304Z" fill="black"/>
<path d="M20.9881 5.9246L19.8294 1L37.5 16.0635L36.631 18.6706L35.1825 22.4365L33.4444 25.9127L31.127 29.0992L28.8095 31.996L25.9127 34.6032L22.7262 36.3413L18.6706 21.2778H3.89683L1 15.4841L12.2976 11.4286V9.98016L20.9881 5.9246Z" fill="black" stroke="white" stroke-width="0.579365"/>
</svg>
